<?xml version="1.0" encoding="UTF-8"?>
<svg xmlns="http://www.w3.org/2000/svg" xmlns:xlink="http://www.w3.org/1999/xlink" width="52pt" height="52pt" viewBox="0 0 52 52" version="1.1">
<g id="surface1">
<path style=" stroke:none;fill-rule:nonzero;fill:#FFFFFF;fill-opacity:1;" d="M 10.6875 0 C 10.375 0.09375 10.132813 0.335938 10.03125 0.648438 C 9.929688 0.960938 9.992188 1.304688 10.1875 1.5625 L 14.1875 7.5625 C 14.390625 7.875 14.757813 8.039063 15.125 8 L 19.25 7.5 C 18.46875 8.898438 18 10.445313 18 12 C 18 15.578125 20.375 17.289063 23.625 17.8125 C 20.375 18.390625 18 20.265625 18 24 C 18 27.859375 20.523438 31.164063 23.9375 32.125 C 19.34375 32.65625 16 35.085938 16 39.8125 C 16 45.210938 20.398438 52 26 52 C 31.601563 52 36 45.015625 36 39.8125 C 36 35.265625 32.65625 32.695313 28.0625 32.125 C 31.476563 31.164063 34 27.859375 34 24 C 34 20.265625 31.625 18.390625 28.375 17.8125 C 31.625 17.289063 34 15.578125 34 12 C 34 10.445313 33.53125 8.898438 32.75 7.5 L 36.875 8 C 37.242188 8.039063 37.609375 7.875 37.8125 7.5625 L 41.8125 1.5625 C 42.046875 1.226563 42.0625 0.789063 41.84375 0.445313 C 41.617188 0.101563 41.210938 -0.078125 40.8125 0 C 40.554688 0.0546875 40.328125 0.210938 40.1875 0.4375 L 36.5 5.9375 L 31.8125 5.375 C 31.117188 2.09375 28 0 28 0 L 28 3.375 C 27.359375 3.164063 26.695313 3 26 3 C 25.304688 3 24.640625 3.164063 24 3.375 L 24 0 C 24 0 20.882813 2.09375 20.1875 5.375 L 15.5 5.9375 L 11.8125 0.4375 C 11.59375 0.109375 11.203125 -0.0625 10.8125 0 C 10.773438 0 10.726563 0 10.6875 0 Z M 6 6.4375 C 5.804688 6.445313 5.578125 6.523438 5.375 6.625 C 4.578125 7.023438 4.226563 7.828125 4.625 8.625 L 8.625 18.625 C 8.828125 19.226563 9.398438 19.625 10 19.625 L 16.625 20.1875 L 17 20.1875 C 17.398438 19.1875 18.023438 18.171875 18.625 17.375 L 18.375 17.1875 L 16.8125 17.1875 L 11.1875 16.625 L 7.375 7.375 C 7.078125 6.773438 6.578125 6.421875 6 6.4375 Z M 46.375 6.625 C 45.75 6.609375 45.148438 7.023438 45 7.625 L 41.375 16.625 L 35.625 17.1875 C 35.023438 16.984375 35 16.984375 35 17.1875 L 34 17.375 L 33.8125 17.625 C 34.414063 18.421875 34.976563 19.375 35.375 20.375 L 35.8125 20.375 L 42.375 19.8125 C 42.976563 19.8125 43.609375 19.414063 43.8125 18.8125 L 47.8125 8.8125 C 48.210938 8.015625 47.796875 7.015625 47 6.8125 C 46.796875 6.710938 46.585938 6.632813 46.375 6.625 Z M 5.625 22.375 C 5.054688 22.4375 4.523438 22.773438 4.375 23.375 L 0.375 29.375 C -0.0234375 30.171875 0.390625 31.171875 1.1875 31.375 C 1.390625 31.375 1.609375 31.625 1.8125 31.625 C 2.414063 31.625 2.984375 31.226563 3.1875 30.625 L 6.8125 25.8125 L 15.625 27.625 L 16.625 27.625 C 16.226563 26.625 16 25.578125 16 24.375 L 15.8125 24.375 L 6.1875 22.375 C 5.984375 22.328125 5.8125 22.351563 5.625 22.375 Z M 45.625 22.375 L 36 24.375 L 35.8125 24.375 C 35.8125 25.578125 35.585938 26.625 35.1875 27.625 L 35.375 27.625 C 35.578125 27.625 35.984375 27.828125 36.1875 27.625 L 44.8125 25.8125 L 48.375 30.625 C 48.578125 31.226563 49.210938 31.625 49.8125 31.625 C 50.015625 31.625 50.171875 31.578125 50.375 31.375 C 51.375 31.171875 51.773438 30.171875 51.375 29.375 L 47.375 23.375 C 47.171875 22.578125 46.421875 22.171875 45.625 22.375 Z M 18 29.8125 L 15.625 30.375 C 15.421875 30.375 15.1875 30.625 15.1875 30.625 L 9.1875 34.625 C 8.789063 34.828125 8.625 35.171875 8.625 35.375 L 4.625 49.375 C 4.421875 50.171875 4.828125 51.171875 5.625 51.375 L 6 51.375 C 6.601563 51.375 7.421875 50.984375 7.625 50.1875 L 11.375 36.8125 L 15.375 34.1875 C 16.171875 32.984375 17.398438 31.796875 19 31 C 18.601563 30.601563 18.398438 30.210938 18 29.8125 Z M 34 29.8125 C 33.796875 30.210938 33.398438 30.601563 33 31 C 34.601563 31.796875 35.625 32.976563 36.625 34.375 L 40.625 37 L 44.375 50.375 C 44.578125 51.171875 45.203125 51.625 46 51.625 L 46.375 51.625 C 47.171875 51.421875 47.773438 50.421875 47.375 49.625 L 43.625 35.625 C 43.421875 35.226563 43.203125 35.015625 43 34.8125 L 37 30.8125 C 36.796875 30.609375 36.625 30.625 36.625 30.625 Z "/>
</g>
</svg>
